<?xml version="1.0" standalone="no"?>

<!--
Generated by putting the grammar below in
https://tabatkins.github.io/railroad-diagrams/generator.html
and making the following modifications to the SVG output pane:
* preserving this comment and the XML prologue above
* adding xmlns="http://www.w3.org/2000/svg" to the <svg> tag
* adding <defs><style>...</style></defs> as the first child
  of the <svg> element with the contents of
  https://raw.githubusercontent.com/tabatkins/railroad-diagrams/gh-pages/railroad-diagrams.css

==================

Diagram(
  ZeroOrMore(
    Choice(
      3,
      Sequence(
        Comment('hole'),
        Terminal('${'),
        NonTerminal('escape'),
        Terminal('}')),
      Sequence(
        Comment('line comment'),
        Sequence(Terminal('\-\-'), NonTerminal('space')),
        ZeroOrMore(Terminal('[^\\r\\n]'))),
      Sequence(
        Comment('block comment'),
        Terminal('/*'),
        ZeroOrMore(
          Choice(
            1,
            NonTerminal('nested block comment'),
            Sequence(
              Choice(
                0,
                ZeroOrMore(Terminal('*')),
                OneOrMore(Terminal('/'))),
              Terminal('[^*/]')))),
        Terminal('*/')
      ),
      Sequence(
        Comment('normal char'),
        Terminal('[^\'\"$\\\\]')),
      Sequence(
        Comment('escape'),
        Terminal('\\'),
        NonTerminal('char')),
      Sequence(
        Comment('id'),
        Optional(Terminal('U&')),
        Terminal('"'),
        ZeroOrMore(
          Choice(
            1,
            Terminal('""'),
            Terminal('[^\"\\\\]'),
            Sequence(Terminal('\\'), NonTerminal('char')),
            Sequence(Terminal('${'), NonTerminal('escapeIdChars'), Terminal('}')))),
        Terminal('"')),
      Sequence(
        Comment('quoted string'),
        Optional(
          Choice(
            1,
            Terminal('B'),
            Terminal('X'))),
        Terminal('\''),
        ZeroOrMore(
          Choice(
            1,
            Terminal('\'\''),
            Terminal('[^\']'),
            Sequence(Terminal('${'), NonTerminal('escapeChars'), Terminal('}')))),
        Terminal('\''),
        NonTerminal('continuation')),
      Sequence(
        Comment('escaped'),
        Choice(
          1,
          Terminal('U&'),
          Terminal('E')),
        Terminal('\''),
        ZeroOrMore(
          Choice(
            1,
            Terminal('\'\''),
            Terminal('[^\'\\\\]'),
            Sequence(Terminal('\\'), NonTerminal('char')),
            Sequence(Terminal('${'), NonTerminal('escapeChars'), Terminal('}')))),
        Terminal('\''),
        NonTerminal('continuation')),
      Sequence(
        Comment('literal'),
        Terminal('$'),
        Optional(NonTerminal('tag'), 'skip'),
        Terminal('$'),
        ZeroOrMore(
          Choice(
            0,
            NonTerminal('char'),
            Sequence(Terminal('${'), NonTerminal('literalChars'), Terminal('}'))
        )),
        Terminal('$'),
        NonTerminal('same tag'),
        Terminal('$')))));

-->


<svg class="railroad-diagram" width="939" height="774" viewBox="0 0 939 774"
     xmlns="http://www.w3.org/2000/svg">
  <defs><style>
svg.railroad-diagram {
    background-color: hsl(30,20%,95%);
}
svg.railroad-diagram path {
    stroke-width: 3;
    stroke: black;
    fill: rgba(0,0,0,0);
}
svg.railroad-diagram text {
    font: bold 14px monospace;
    text-anchor: middle;
}
svg.railroad-diagram text.diagram-text {
    font-size: 12px;
}
svg.railroad-diagram text.diagram-arrow {
    font-size: 16px;
}
svg.railroad-diagram text.label {
    text-anchor: start;
}
svg.railroad-diagram text.comment {
    font: italic 12px monospace;
}
svg.railroad-diagram g.non-terminal text {
    /*font-style: italic;*/
}
svg.railroad-diagram rect {
    stroke-width: 3;
    stroke: black;
    fill: hsl(120,100%,90%);
}
svg.railroad-diagram path.diagram-text {
    stroke-width: 3;
    stroke: black;
    fill: white;
    cursor: help;
}
svg.railroad-diagram g.diagram-text:hover path.diagram-text {
    fill: #eee;
}
</style>
</defs>
<g transform="translate(.5 .5)">
<path d="M 20 240 v 20 m 10 -20 v 20 m -10 -10 h 20.5"></path>
<g>
<path d="M40 250h0"></path>
<path d="M899 250h0"></path>
<path d="M40 250a10 10 0 0 0 10 -10v-210a10 10 0 0 1 10 -10"></path>
<g>
<path d="M60 20h819"></path>
</g>
<path d="M879 20a10 10 0 0 1 10 10v210a10 10 0 0 0 10 10"></path>
<path d="M40 250h20"></path>
<g>
<path d="M60 250h0"></path>
<path d="M879 250h0"></path>
<path d="M60 250h10"></path>
<g>
<path d="M70 250h0"></path>
<path d="M869 250h0"></path>
<path d="M70 250a10 10 0 0 0 10 -10v-66a10 10 0 0 1 10 -10"></path>
<g>
<path d="M90 164h124"></path>
<path d="M725 164h124"></path>
<g>
<path d="M214 164h0"></path>
<path d="M315 164h0"></path>
<text x="264.5" y="169" class="comment">block comment</text>
</g>
<path d="M315 164h10"></path>
<path d="M325 164h10"></path>
<g class="terminal">
<path d="M335 164h0"></path>
<path d="M371 164h0"></path>
<rect x="335" y="153" width="36" height="22" rx="10" ry="10"></rect>
<text x="353" y="168">/&#42;</text>
</g>
<path d="M371 164h10"></path>
<g>
<path d="M381 164h0"></path>
<path d="M679 164h0"></path>
<path d="M381 164a10 10 0 0 0 10 -10v-38a10 10 0 0 1 10 -10"></path>
<g>
<path d="M401 106h258"></path>
</g>
<path d="M659 106a10 10 0 0 1 10 10v38a10 10 0 0 0 10 10"></path>
<path d="M381 164h20"></path>
<g>
<path d="M401 164h0"></path>
<path d="M659 164h0"></path>
<path d="M401 164h10"></path>
<g>
<path d="M411 164h0"></path>
<path d="M649 164h0"></path>
<path d="M411 164a10 10 0 0 0 10 -10v-19a10 10 0 0 1 10 -10"></path>
<g class="non-terminal">
<path d="M431 125h9"></path>
<path d="M620 125h9"></path>
<rect x="440" y="114" width="180" height="22"></rect>
<text x="530" y="129">nested block comment</text>
</g>
<path d="M629 125a10 10 0 0 1 10 10v19a10 10 0 0 0 10 10"></path>
<path d="M411 164h20"></path>
<g>
<path d="M431 164h0"></path>
<path d="M629 164h0"></path>
<g>
<path d="M431 164h0"></path>
<path d="M559 164h0"></path>
<path d="M431 164h20"></path>
<g>
<path d="M451 164h0"></path>
<path d="M539 164h0"></path>
<path d="M451 164a10 10 0 0 0 10 -10v0a10 10 0 0 1 10 -10"></path>
<g>
<path d="M471 144h48"></path>
</g>
<path d="M519 144a10 10 0 0 1 10 10v0a10 10 0 0 0 10 10"></path>
<path d="M451 164h20"></path>
<g>
<path d="M471 164h0"></path>
<path d="M519 164h0"></path>
<path d="M471 164h10"></path>
<g class="terminal">
<path d="M481 164h0"></path>
<path d="M509 164h0"></path>
<rect x="481" y="153" width="28" height="22" rx="10" ry="10"></rect>
<text x="495" y="168">&#42;</text>
</g>
<path d="M509 164h10"></path>
<path d="M481 164a10 10 0 0 0 -10 10v0a10 10 0 0 0 10 10"></path>
<g>
<path d="M481 184h28"></path>
</g>
<path d="M509 184a10 10 0 0 0 10 -10v0a10 10 0 0 0 -10 -10"></path>
</g>
<path d="M519 164h20"></path>
</g>
<path d="M539 164h20"></path>
<path d="M431 164a10 10 0 0 1 10 10v19a10 10 0 0 0 10 10"></path>
<g>
<path d="M451 203h20"></path>
<path d="M519 203h20"></path>
<path d="M471 203h10"></path>
<g class="terminal">
<path d="M481 203h0"></path>
<path d="M509 203h0"></path>
<rect x="481" y="192" width="28" height="22" rx="10" ry="10"></rect>
<text x="495" y="207">/</text>
</g>
<path d="M509 203h10"></path>
<path d="M481 203a10 10 0 0 0 -10 10v0a10 10 0 0 0 10 10"></path>
<g>
<path d="M481 223h28"></path>
</g>
<path d="M509 223a10 10 0 0 0 10 -10v0a10 10 0 0 0 -10 -10"></path>
</g>
<path d="M539 203a10 10 0 0 0 10 -10v-19a10 10 0 0 1 10 -10"></path>
</g>
<path d="M559 164h10"></path>
<g class="terminal">
<path d="M569 164h0"></path>
<path d="M629 164h0"></path>
<rect x="569" y="153" width="60" height="22" rx="10" ry="10"></rect>
<text x="599" y="168">&#91;^&#42;/&#93;</text>
</g>
</g>
<path d="M629 164h20"></path>
</g>
<path d="M649 164h10"></path>
<path d="M411 164a10 10 0 0 0 -10 10v47a10 10 0 0 0 10 10"></path>
<g>
<path d="M411 231h238"></path>
</g>
<path d="M649 231a10 10 0 0 0 10 -10v-47a10 10 0 0 0 -10 -10"></path>
</g>
<path d="M659 164h20"></path>
</g>
<path d="M679 164h10"></path>
<g class="terminal">
<path d="M689 164h0"></path>
<path d="M725 164h0"></path>
<rect x="689" y="153" width="36" height="22" rx="10" ry="10"></rect>
<text x="707" y="168">&#42;/</text>
</g>
</g>
<path d="M849 164a10 10 0 0 1 10 10v66a10 10 0 0 0 10 10"></path>
<path d="M70 250a10 10 0 0 0 10 -10v-152a10 10 0 0 1 10 -10"></path>
<g>
<path d="M90 78h191.5"></path>
<path d="M657.5 78h191.5"></path>
<g>
<path d="M281.5 78h0"></path>
<path d="M375.5 78h0"></path>
<text x="328.5" y="83" class="comment">line comment</text>
</g>
<path d="M375.5 78h10"></path>
<path d="M385.5 78h10"></path>
<g>
<path d="M395.5 78h0"></path>
<path d="M511.5 78h0"></path>
<g class="terminal">
<path d="M395.5 78h0"></path>
<path d="M431.5 78h0"></path>
<rect x="395.5" y="67" width="36" height="22" rx="10" ry="10"></rect>
<text x="413.5" y="82">--</text>
</g>
<path d="M431.5 78h10"></path>
<path d="M441.5 78h10"></path>
<g class="non-terminal">
<path d="M451.5 78h0"></path>
<path d="M511.5 78h0"></path>
<rect x="451.5" y="67" width="60" height="22"></rect>
<text x="481.5" y="82">space</text>
</g>
</g>
<path d="M511.5 78h10"></path>
<g>
<path d="M521.5 78h0"></path>
<path d="M657.5 78h0"></path>
<path d="M521.5 78a10 10 0 0 0 10 -10v0a10 10 0 0 1 10 -10"></path>
<g>
<path d="M541.5 58h96"></path>
</g>
<path d="M637.5 58a10 10 0 0 1 10 10v0a10 10 0 0 0 10 10"></path>
<path d="M521.5 78h20"></path>
<g>
<path d="M541.5 78h0"></path>
<path d="M637.5 78h0"></path>
<path d="M541.5 78h10"></path>
<g class="terminal">
<path d="M551.5 78h0"></path>
<path d="M627.5 78h0"></path>
<rect x="551.5" y="67" width="76" height="22" rx="10" ry="10"></rect>
<text x="589.5" y="82">&#91;^\r\n&#93;</text>
</g>
<path d="M627.5 78h10"></path>
<path d="M551.5 78a10 10 0 0 0 -10 10v0a10 10 0 0 0 10 10"></path>
<g>
<path d="M551.5 98h76"></path>
</g>
<path d="M627.5 98a10 10 0 0 0 10 -10v0a10 10 0 0 0 -10 -10"></path>
</g>
<path d="M637.5 78h20"></path>
</g>
</g>
<path d="M849 78a10 10 0 0 1 10 10v152a10 10 0 0 0 10 10"></path>
<path d="M70 250a10 10 0 0 0 10 -10v-191a10 10 0 0 1 10 -10"></path>
<g>
<path d="M90 39h264.5"></path>
<path d="M584.5 39h264.5"></path>
<g>
<path d="M354.5 39h0"></path>
<path d="M392.5 39h0"></path>
<text x="373.5" y="44" class="comment">hole</text>
</g>
<path d="M392.5 39h10"></path>
<path d="M402.5 39h10"></path>
<g class="terminal">
<path d="M412.5 39h0"></path>
<path d="M448.5 39h0"></path>
<rect x="412.5" y="28" width="36" height="22" rx="10" ry="10"></rect>
<text x="430.5" y="43">${</text>
</g>
<path d="M448.5 39h10"></path>
<path d="M458.5 39h10"></path>
<g class="non-terminal">
<path d="M468.5 39h0"></path>
<path d="M536.5 39h0"></path>
<rect x="468.5" y="28" width="68" height="22"></rect>
<text x="502.5" y="43">escape</text>
</g>
<path d="M536.5 39h10"></path>
<path d="M546.5 39h10"></path>
<g class="terminal">
<path d="M556.5 39h0"></path>
<path d="M584.5 39h0"></path>
<rect x="556.5" y="28" width="28" height="22" rx="10" ry="10"></rect>
<text x="570.5" y="43">}</text>
</g>
</g>
<path d="M849 39a10 10 0 0 1 10 10v191a10 10 0 0 0 10 10"></path>
<path d="M70 250h20"></path>
<g>
<path d="M90 250h284"></path>
<path d="M565 250h284"></path>
<g>
<path d="M374 250h0"></path>
<path d="M461 250h0"></path>
<text x="417.5" y="255" class="comment">normal char</text>
</g>
<path d="M461 250h10"></path>
<path d="M471 250h10"></path>
<g class="terminal">
<path d="M481 250h0"></path>
<path d="M565 250h0"></path>
<rect x="481" y="239" width="84" height="22" rx="10" ry="10"></rect>
<text x="523" y="254">&#91;^'"$\\&#93;</text>
</g>
</g>
<path d="M849 250h20"></path>
<path d="M70 250a10 10 0 0 1 10 10v10a10 10 0 0 0 10 10"></path>
<g>
<path d="M90 280h293.5"></path>
<path d="M555.5 280h293.5"></path>
<g>
<path d="M383.5 280h0"></path>
<path d="M435.5 280h0"></path>
<text x="409.5" y="285" class="comment">escape</text>
</g>
<path d="M435.5 280h10"></path>
<path d="M445.5 280h10"></path>
<g class="terminal">
<path d="M455.5 280h0"></path>
<path d="M483.5 280h0"></path>
<rect x="455.5" y="269" width="28" height="22" rx="10" ry="10"></rect>
<text x="469.5" y="284">\</text>
</g>
<path d="M483.5 280h10"></path>
<path d="M493.5 280h10"></path>
<g class="non-terminal">
<path d="M503.5 280h0"></path>
<path d="M555.5 280h0"></path>
<rect x="503.5" y="269" width="52" height="22"></rect>
<text x="529.5" y="284">char</text>
</g>
</g>
<path d="M849 280a10 10 0 0 0 10 -10v-10a10 10 0 0 1 10 -10"></path>
<path d="M70 250a10 10 0 0 1 10 10v78a10 10 0 0 0 10 10"></path>
<g>
<path d="M90 348h117.5"></path>
<path d="M731.5 348h117.5"></path>
<g>
<path d="M207.5 348h0"></path>
<path d="M231.5 348h0"></path>
<text x="219.5" y="353" class="comment">id</text>
</g>
<path d="M231.5 348h10"></path>
<g>
<path d="M241.5 348h0"></path>
<path d="M317.5 348h0"></path>
<path d="M241.5 348a10 10 0 0 0 10 -10v0a10 10 0 0 1 10 -10"></path>
<g>
<path d="M261.5 328h36"></path>
</g>
<path d="M297.5 328a10 10 0 0 1 10 10v0a10 10 0 0 0 10 10"></path>
<path d="M241.5 348h20"></path>
<g class="terminal">
<path d="M261.5 348h0"></path>
<path d="M297.5 348h0"></path>
<rect x="261.5" y="337" width="36" height="22" rx="10" ry="10"></rect>
<text x="279.5" y="352">U&#38;</text>
</g>
<path d="M297.5 348h20"></path>
</g>
<path d="M317.5 348h10"></path>
<g class="terminal">
<path d="M327.5 348h0"></path>
<path d="M355.5 348h0"></path>
<rect x="327.5" y="337" width="28" height="22" rx="10" ry="10"></rect>
<text x="341.5" y="352">"</text>
</g>
<path d="M355.5 348h10"></path>
<g>
<path d="M365.5 348h0"></path>
<path d="M693.5 348h0"></path>
<path d="M365.5 348a10 10 0 0 0 10 -10v-29a10 10 0 0 1 10 -10"></path>
<g>
<path d="M385.5 299h288"></path>
</g>
<path d="M673.5 299a10 10 0 0 1 10 10v29a10 10 0 0 0 10 10"></path>
<path d="M365.5 348h20"></path>
<g>
<path d="M385.5 348h0"></path>
<path d="M673.5 348h0"></path>
<path d="M385.5 348h10"></path>
<g>
<path d="M395.5 348h0"></path>
<path d="M663.5 348h0"></path>
<path d="M395.5 348a10 10 0 0 0 10 -10v-10a10 10 0 0 1 10 -10"></path>
<g class="terminal">
<path d="M415.5 318h96"></path>
<path d="M547.5 318h96"></path>
<rect x="511.5" y="307" width="36" height="22" rx="10" ry="10"></rect>
<text x="529.5" y="322">""</text>
</g>
<path d="M643.5 318a10 10 0 0 1 10 10v10a10 10 0 0 0 10 10"></path>
<path d="M395.5 348h20"></path>
<g class="terminal">
<path d="M415.5 348h80"></path>
<path d="M563.5 348h80"></path>
<rect x="495.5" y="337" width="68" height="22" rx="10" ry="10"></rect>
<text x="529.5" y="352">&#91;^"\\&#93;</text>
</g>
<path d="M643.5 348h20"></path>
<path d="M395.5 348a10 10 0 0 1 10 10v10a10 10 0 0 0 10 10"></path>
<g>
<path d="M415.5 378h64"></path>
<path d="M579.5 378h64"></path>
<g class="terminal">
<path d="M479.5 378h0"></path>
<path d="M507.5 378h0"></path>
<rect x="479.5" y="367" width="28" height="22" rx="10" ry="10"></rect>
<text x="493.5" y="382">\</text>
</g>
<path d="M507.5 378h10"></path>
<path d="M517.5 378h10"></path>
<g class="non-terminal">
<path d="M527.5 378h0"></path>
<path d="M579.5 378h0"></path>
<rect x="527.5" y="367" width="52" height="22"></rect>
<text x="553.5" y="382">char</text>
</g>
</g>
<path d="M643.5 378a10 10 0 0 0 10 -10v-10a10 10 0 0 1 10 -10"></path>
<path d="M395.5 348a10 10 0 0 1 10 10v40a10 10 0 0 0 10 10"></path>
<g>
<path d="M415.5 408h0"></path>
<path d="M643.5 408h0"></path>
<g class="terminal">
<path d="M415.5 408h0"></path>
<path d="M451.5 408h0"></path>
<rect x="415.5" y="397" width="36" height="22" rx="10" ry="10"></rect>
<text x="433.5" y="412">${</text>
</g>
<path d="M451.5 408h10"></path>
<path d="M461.5 408h10"></path>
<g class="non-terminal">
<path d="M471.5 408h0"></path>
<path d="M595.5 408h0"></path>
<rect x="471.5" y="397" width="124" height="22"></rect>
<text x="533.5" y="412">escapeIdChars</text>
</g>
<path d="M595.5 408h10"></path>
<path d="M605.5 408h10"></path>
<g class="terminal">
<path d="M615.5 408h0"></path>
<path d="M643.5 408h0"></path>
<rect x="615.5" y="397" width="28" height="22" rx="10" ry="10"></rect>
<text x="629.5" y="412">}</text>
</g>
</g>
<path d="M643.5 408a10 10 0 0 0 10 -10v-40a10 10 0 0 1 10 -10"></path>
</g>
<path d="M663.5 348h10"></path>
<path d="M395.5 348a10 10 0 0 0 -10 10v59a10 10 0 0 0 10 10"></path>
<g>
<path d="M395.5 427h268"></path>
</g>
<path d="M663.5 427a10 10 0 0 0 10 -10v-59a10 10 0 0 0 -10 -10"></path>
</g>
<path d="M673.5 348h20"></path>
</g>
<path d="M693.5 348h10"></path>
<g class="terminal">
<path d="M703.5 348h0"></path>
<path d="M731.5 348h0"></path>
<rect x="703.5" y="337" width="28" height="22" rx="10" ry="10"></rect>
<text x="717.5" y="352">"</text>
</g>
</g>
<path d="M849 348a10 10 0 0 0 10 -10v-78a10 10 0 0 1 10 -10"></path>
<path d="M70 250a10 10 0 0 1 10 10v214a10 10 0 0 0 10 10"></path>
<g>
<path d="M90 484h3"></path>
<path d="M846 484h3"></path>
<g>
<path d="M93 484h0"></path>
<path d="M194 484h0"></path>
<text x="143.5" y="489" class="comment">quoted string</text>
</g>
<path d="M194 484h10"></path>
<g>
<path d="M204 484h0"></path>
<path d="M312 484h0"></path>
<path d="M204 484a10 10 0 0 0 10 -10v-29a10 10 0 0 1 10 -10"></path>
<g>
<path d="M224 435h68"></path>
</g>
<path d="M292 435a10 10 0 0 1 10 10v29a10 10 0 0 0 10 10"></path>
<path d="M204 484h20"></path>
<g>
<path d="M224 484h0"></path>
<path d="M292 484h0"></path>
<path d="M224 484a10 10 0 0 0 10 -10v-10a10 10 0 0 1 10 -10"></path>
<g class="terminal">
<path d="M244 454h0"></path>
<path d="M272 454h0"></path>
<rect x="244" y="443" width="28" height="22" rx="10" ry="10"></rect>
<text x="258" y="458">B</text>
</g>
<path d="M272 454a10 10 0 0 1 10 10v10a10 10 0 0 0 10 10"></path>
<path d="M224 484h20"></path>
<g class="terminal">
<path d="M244 484h0"></path>
<path d="M272 484h0"></path>
<rect x="244" y="473" width="28" height="22" rx="10" ry="10"></rect>
<text x="258" y="488">X</text>
</g>
<path d="M272 484h20"></path>
</g>
<path d="M292 484h20"></path>
</g>
<path d="M312 484h10"></path>
<g class="terminal">
<path d="M322 484h0"></path>
<path d="M350 484h0"></path>
<rect x="322" y="473" width="28" height="22" rx="10" ry="10"></rect>
<text x="336" y="488">'</text>
</g>
<path d="M350 484h10"></path>
<g>
<path d="M360 484h0"></path>
<path d="M672 484h0"></path>
<path d="M360 484a10 10 0 0 0 10 -10v-29a10 10 0 0 1 10 -10"></path>
<g>
<path d="M380 435h272"></path>
</g>
<path d="M652 435a10 10 0 0 1 10 10v29a10 10 0 0 0 10 10"></path>
<path d="M360 484h20"></path>
<g>
<path d="M380 484h0"></path>
<path d="M652 484h0"></path>
<path d="M380 484h10"></path>
<g>
<path d="M390 484h0"></path>
<path d="M642 484h0"></path>
<path d="M390 484a10 10 0 0 0 10 -10v-10a10 10 0 0 1 10 -10"></path>
<g class="terminal">
<path d="M410 454h88"></path>
<path d="M534 454h88"></path>
<rect x="498" y="443" width="36" height="22" rx="10" ry="10"></rect>
<text x="516" y="458">''</text>
</g>
<path d="M622 454a10 10 0 0 1 10 10v10a10 10 0 0 0 10 10"></path>
<path d="M390 484h20"></path>
<g class="terminal">
<path d="M410 484h80"></path>
<path d="M542 484h80"></path>
<rect x="490" y="473" width="52" height="22" rx="10" ry="10"></rect>
<text x="516" y="488">&#91;^'&#93;</text>
</g>
<path d="M622 484h20"></path>
<path d="M390 484a10 10 0 0 1 10 10v10a10 10 0 0 0 10 10"></path>
<g>
<path d="M410 514h0"></path>
<path d="M622 514h0"></path>
<g class="terminal">
<path d="M410 514h0"></path>
<path d="M446 514h0"></path>
<rect x="410" y="503" width="36" height="22" rx="10" ry="10"></rect>
<text x="428" y="518">${</text>
</g>
<path d="M446 514h10"></path>
<path d="M456 514h10"></path>
<g class="non-terminal">
<path d="M466 514h0"></path>
<path d="M574 514h0"></path>
<rect x="466" y="503" width="108" height="22"></rect>
<text x="520" y="518">escapeChars</text>
</g>
<path d="M574 514h10"></path>
<path d="M584 514h10"></path>
<g class="terminal">
<path d="M594 514h0"></path>
<path d="M622 514h0"></path>
<rect x="594" y="503" width="28" height="22" rx="10" ry="10"></rect>
<text x="608" y="518">}</text>
</g>
</g>
<path d="M622 514a10 10 0 0 0 10 -10v-10a10 10 0 0 1 10 -10"></path>
</g>
<path d="M642 484h10"></path>
<path d="M390 484a10 10 0 0 0 -10 10v29a10 10 0 0 0 10 10"></path>
<g>
<path d="M390 533h252"></path>
</g>
<path d="M642 533a10 10 0 0 0 10 -10v-29a10 10 0 0 0 -10 -10"></path>
</g>
<path d="M652 484h20"></path>
</g>
<path d="M672 484h10"></path>
<g class="terminal">
<path d="M682 484h0"></path>
<path d="M710 484h0"></path>
<rect x="682" y="473" width="28" height="22" rx="10" ry="10"></rect>
<text x="696" y="488">'</text>
</g>
<path d="M710 484h10"></path>
<path d="M720 484h10"></path>
<g class="non-terminal">
<path d="M730 484h0"></path>
<path d="M846 484h0"></path>
<rect x="730" y="473" width="116" height="22"></rect>
<text x="788" y="488">continuation</text>
</g>
</g>
<path d="M849 484a10 10 0 0 0 10 -10v-214a10 10 0 0 1 10 -10"></path>
<path d="M70 250a10 10 0 0 1 10 10v320a10 10 0 0 0 10 10"></path>
<g>
<path d="M90 590h40"></path>
<path d="M809 590h40"></path>
<g>
<path d="M130 590h0"></path>
<path d="M189 590h0"></path>
<text x="159.5" y="595" class="comment">escaped</text>
</g>
<path d="M189 590h10"></path>
<g>
<path d="M199 590h0"></path>
<path d="M275 590h0"></path>
<path d="M199 590a10 10 0 0 0 10 -10v-10a10 10 0 0 1 10 -10"></path>
<g class="terminal">
<path d="M219 560h0"></path>
<path d="M255 560h0"></path>
<rect x="219" y="549" width="36" height="22" rx="10" ry="10"></rect>
<text x="237" y="564">U&#38;</text>
</g>
<path d="M255 560a10 10 0 0 1 10 10v10a10 10 0 0 0 10 10"></path>
<path d="M199 590h20"></path>
<g class="terminal">
<path d="M219 590h4"></path>
<path d="M251 590h4"></path>
<rect x="223" y="579" width="28" height="22" rx="10" ry="10"></rect>
<text x="237" y="594">E</text>
</g>
<path d="M255 590h20"></path>
</g>
<path d="M275 590h10"></path>
<g class="terminal">
<path d="M285 590h0"></path>
<path d="M313 590h0"></path>
<rect x="285" y="579" width="28" height="22" rx="10" ry="10"></rect>
<text x="299" y="594">'</text>
</g>
<path d="M313 590h10"></path>
<g>
<path d="M323 590h0"></path>
<path d="M635 590h0"></path>
<path d="M323 590a10 10 0 0 0 10 -10v-29a10 10 0 0 1 10 -10"></path>
<g>
<path d="M343 541h272"></path>
</g>
<path d="M615 541a10 10 0 0 1 10 10v29a10 10 0 0 0 10 10"></path>
<path d="M323 590h20"></path>
<g>
<path d="M343 590h0"></path>
<path d="M615 590h0"></path>
<path d="M343 590h10"></path>
<g>
<path d="M353 590h0"></path>
<path d="M605 590h0"></path>
<path d="M353 590a10 10 0 0 0 10 -10v-10a10 10 0 0 1 10 -10"></path>
<g class="terminal">
<path d="M373 560h88"></path>
<path d="M497 560h88"></path>
<rect x="461" y="549" width="36" height="22" rx="10" ry="10"></rect>
<text x="479" y="564">''</text>
</g>
<path d="M585 560a10 10 0 0 1 10 10v10a10 10 0 0 0 10 10"></path>
<path d="M353 590h20"></path>
<g class="terminal">
<path d="M373 590h72"></path>
<path d="M513 590h72"></path>
<rect x="445" y="579" width="68" height="22" rx="10" ry="10"></rect>
<text x="479" y="594">&#91;^'\\&#93;</text>
</g>
<path d="M585 590h20"></path>
<path d="M353 590a10 10 0 0 1 10 10v10a10 10 0 0 0 10 10"></path>
<g>
<path d="M373 620h56"></path>
<path d="M529 620h56"></path>
<g class="terminal">
<path d="M429 620h0"></path>
<path d="M457 620h0"></path>
<rect x="429" y="609" width="28" height="22" rx="10" ry="10"></rect>
<text x="443" y="624">\</text>
</g>
<path d="M457 620h10"></path>
<path d="M467 620h10"></path>
<g class="non-terminal">
<path d="M477 620h0"></path>
<path d="M529 620h0"></path>
<rect x="477" y="609" width="52" height="22"></rect>
<text x="503" y="624">char</text>
</g>
</g>
<path d="M585 620a10 10 0 0 0 10 -10v-10a10 10 0 0 1 10 -10"></path>
<path d="M353 590a10 10 0 0 1 10 10v40a10 10 0 0 0 10 10"></path>
<g>
<path d="M373 650h0"></path>
<path d="M585 650h0"></path>
<g class="terminal">
<path d="M373 650h0"></path>
<path d="M409 650h0"></path>
<rect x="373" y="639" width="36" height="22" rx="10" ry="10"></rect>
<text x="391" y="654">${</text>
</g>
<path d="M409 650h10"></path>
<path d="M419 650h10"></path>
<g class="non-terminal">
<path d="M429 650h0"></path>
<path d="M537 650h0"></path>
<rect x="429" y="639" width="108" height="22"></rect>
<text x="483" y="654">escapeChars</text>
</g>
<path d="M537 650h10"></path>
<path d="M547 650h10"></path>
<g class="terminal">
<path d="M557 650h0"></path>
<path d="M585 650h0"></path>
<rect x="557" y="639" width="28" height="22" rx="10" ry="10"></rect>
<text x="571" y="654">}</text>
</g>
</g>
<path d="M585 650a10 10 0 0 0 10 -10v-40a10 10 0 0 1 10 -10"></path>
</g>
<path d="M605 590h10"></path>
<path d="M353 590a10 10 0 0 0 -10 10v59a10 10 0 0 0 10 10"></path>
<g>
<path d="M353 669h252"></path>
</g>
<path d="M605 669a10 10 0 0 0 10 -10v-59a10 10 0 0 0 -10 -10"></path>
</g>
<path d="M615 590h20"></path>
</g>
<path d="M635 590h10"></path>
<g class="terminal">
<path d="M645 590h0"></path>
<path d="M673 590h0"></path>
<rect x="645" y="579" width="28" height="22" rx="10" ry="10"></rect>
<text x="659" y="594">'</text>
</g>
<path d="M673 590h10"></path>
<path d="M683 590h10"></path>
<g class="non-terminal">
<path d="M693 590h0"></path>
<path d="M809 590h0"></path>
<rect x="693" y="579" width="116" height="22"></rect>
<text x="751" y="594">continuation</text>
</g>
</g>
<path d="M849 590a10 10 0 0 0 10 -10v-320a10 10 0 0 1 10 -10"></path>
<path d="M70 250a10 10 0 0 1 10 10v427a10 10 0 0 0 10 10"></path>
<g>
<path d="M90 697h0"></path>
<path d="M849 697h0"></path>
<g>
<path d="M90 697h0"></path>
<path d="M149 697h0"></path>
<text x="119.5" y="702" class="comment">literal</text>
</g>
<path d="M149 697h10"></path>
<path d="M159 697h10"></path>
<g class="terminal">
<path d="M169 697h0"></path>
<path d="M197 697h0"></path>
<rect x="169" y="686" width="28" height="22" rx="10" ry="10"></rect>
<text x="183" y="701">$</text>
</g>
<path d="M197 697h10"></path>
<g>
<path d="M207 697h0"></path>
<path d="M291 697h0"></path>
<path d="M207 697h20"></path>
<g>
<path d="M227 697h44"></path>
</g>
<path d="M271 697h20"></path>
<path d="M207 697a10 10 0 0 1 10 10v0a10 10 0 0 0 10 10"></path>
<g class="non-terminal">
<path d="M227 717h0"></path>
<path d="M271 717h0"></path>
<rect x="227" y="706" width="44" height="22"></rect>
<text x="249" y="721">tag</text>
</g>
<path d="M271 717a10 10 0 0 0 10 -10v0a10 10 0 0 1 10 -10"></path>
</g>
<path d="M291 697h10"></path>
<g class="terminal">
<path d="M301 697h0"></path>
<path d="M329 697h0"></path>
<rect x="301" y="686" width="28" height="22" rx="10" ry="10"></rect>
<text x="315" y="701">$</text>
</g>
<path d="M329 697h10"></path>
<g>
<path d="M339 697h0"></path>
<path d="M659 697h0"></path>
<path d="M339 697a10 10 0 0 0 10 -10v0a10 10 0 0 1 10 -10"></path>
<g>
<path d="M359 677h280"></path>
</g>
<path d="M639 677a10 10 0 0 1 10 10v0a10 10 0 0 0 10 10"></path>
<path d="M339 697h20"></path>
<g>
<path d="M359 697h0"></path>
<path d="M639 697h0"></path>
<path d="M359 697h10"></path>
<g>
<path d="M369 697h0"></path>
<path d="M629 697h0"></path>
<path d="M369 697h20"></path>
<g class="non-terminal">
<path d="M389 697h84"></path>
<path d="M525 697h84"></path>
<rect x="473" y="686" width="52" height="22"></rect>
<text x="499" y="701">char</text>
</g>
<path d="M609 697h20"></path>
<path d="M369 697a10 10 0 0 1 10 10v10a10 10 0 0 0 10 10"></path>
<g>
<path d="M389 727h0"></path>
<path d="M609 727h0"></path>
<g class="terminal">
<path d="M389 727h0"></path>
<path d="M425 727h0"></path>
<rect x="389" y="716" width="36" height="22" rx="10" ry="10"></rect>
<text x="407" y="731">${</text>
</g>
<path d="M425 727h10"></path>
<path d="M435 727h10"></path>
<g class="non-terminal">
<path d="M445 727h0"></path>
<path d="M561 727h0"></path>
<rect x="445" y="716" width="116" height="22"></rect>
<text x="503" y="731">literalChars</text>
</g>
<path d="M561 727h10"></path>
<path d="M571 727h10"></path>
<g class="terminal">
<path d="M581 727h0"></path>
<path d="M609 727h0"></path>
<rect x="581" y="716" width="28" height="22" rx="10" ry="10"></rect>
<text x="595" y="731">}</text>
</g>
</g>
<path d="M609 727a10 10 0 0 0 10 -10v-10a10 10 0 0 1 10 -10"></path>
</g>
<path d="M629 697h10"></path>
<path d="M369 697a10 10 0 0 0 -10 10v29a10 10 0 0 0 10 10"></path>
<g>
<path d="M369 746h260"></path>
</g>
<path d="M629 746a10 10 0 0 0 10 -10v-29a10 10 0 0 0 -10 -10"></path>
</g>
<path d="M639 697h20"></path>
</g>
<path d="M659 697h10"></path>
<g class="terminal">
<path d="M669 697h0"></path>
<path d="M697 697h0"></path>
<rect x="669" y="686" width="28" height="22" rx="10" ry="10"></rect>
<text x="683" y="701">$</text>
</g>
<path d="M697 697h10"></path>
<path d="M707 697h10"></path>
<g class="non-terminal">
<path d="M717 697h0"></path>
<path d="M801 697h0"></path>
<rect x="717" y="686" width="84" height="22"></rect>
<text x="759" y="701">same tag</text>
</g>
<path d="M801 697h10"></path>
<path d="M811 697h10"></path>
<g class="terminal">
<path d="M821 697h0"></path>
<path d="M849 697h0"></path>
<rect x="821" y="686" width="28" height="22" rx="10" ry="10"></rect>
<text x="835" y="701">$</text>
</g>
</g>
<path d="M849 697a10 10 0 0 0 10 -10v-427a10 10 0 0 1 10 -10"></path>
</g>
<path d="M869 250h10"></path>
<path d="M70 250a10 10 0 0 0 -10 10v484a10 10 0 0 0 10 10"></path>
<g>
<path d="M70 754h799"></path>
</g>
<path d="M869 754a10 10 0 0 0 10 -10v-484a10 10 0 0 0 -10 -10"></path>
</g>
<path d="M879 250h20"></path>
</g>
<path d="M 899 250 h 20 m -10 -10 v 20 m 10 -20 v 20"></path>
</g>
</svg>
